<svg width="303" height="56" viewBox="0 0 303 56" fill="none" xmlns="http://www.w3.org/2000/svg">
<g clip-path="url(#clip0_641_1209)">
<path d="M80.0609 28C80.3998 28 80.654 27.9153 80.8234 27.7459C81.1199 27.4494 81.2894 27.1105 81.2894 26.814V21.8578H74.9777V26.814C74.9777 27.1528 75.1048 27.4494 75.3589 27.6612C75.6131 27.9153 75.9096 28 76.2485 28H76.5027V28.2118H70.5723V28H70.8264C71.1653 28 71.4618 27.873 71.6736 27.6612C71.9278 27.407 72.0549 27.1528 72.0549 26.814V16.0121C72.0549 15.6733 71.9278 15.3767 71.6736 15.1649C71.4195 14.9108 71.1653 14.8261 70.8264 14.8261H70.5723V14.6143H76.5027V14.8261H76.2485C75.9096 14.8261 75.6131 14.9531 75.3589 15.1649C75.1048 15.4191 74.9777 15.6733 74.9777 16.0121V21.0106H81.2894V16.0121C81.2894 15.6733 81.1623 15.3767 80.9081 15.1649C80.654 14.9108 80.3998 14.8261 80.0609 14.8261H79.8068V14.6143H85.7372V14.8261H85.483C85.1441 14.8261 84.8476 14.9531 84.5934 15.1649C84.3393 15.4191 84.2122 15.6733 84.2122 16.0121V26.7716C84.2122 27.1105 84.3393 27.407 84.5934 27.6188C84.8476 27.873 85.1441 27.9577 85.483 27.9577H85.7372V28.1695H79.8068V27.9577H80.0609V28Z" fill="#555555"/>
<path d="M100.732 28.0001H100.902V28.2119H94.6748V28.0001H94.8442C95.1407 28.0001 95.3525 27.9153 95.4796 27.7459C95.6067 27.5765 95.6914 27.407 95.6914 27.2376C95.6914 27.0681 95.6491 26.9411 95.6067 26.7716L94.6748 24.3994H90.1423L89.1256 26.7716C89.0409 26.9411 89.0409 27.1105 89.0409 27.2376C89.0409 27.407 89.1256 27.5341 89.2527 27.7035C89.3798 27.873 89.5916 27.9577 89.8881 27.9577H90.0575V28.1695H85.9062V27.9577H86.0757C86.3722 27.9577 86.6687 27.873 86.9653 27.7035C87.2618 27.5341 87.5159 27.2376 87.6854 26.8987L92.1755 16.7323C92.7686 15.4615 93.1075 14.6143 93.1498 14.1907H93.3193L99.0802 26.8563C99.292 27.2376 99.5038 27.5341 99.8004 27.7035C100.139 27.9153 100.436 28.0001 100.732 28.0001ZM90.4388 23.5946H94.3359L92.4297 18.8079L90.4388 23.5946Z" fill="#555555"/>
<path d="M101.41 28C101.749 28 102.046 27.873 102.258 27.6612C102.512 27.407 102.639 27.1528 102.639 26.814V16.0121C102.639 15.6733 102.512 15.3767 102.258 15.1649C102.003 14.9108 101.749 14.8261 101.41 14.8261H101.156V14.6143H107.087V14.8261H106.832C106.494 14.8261 106.197 14.9531 105.943 15.1649C105.689 15.4191 105.562 15.6733 105.562 16.0121V27.3646H108.103C109.035 27.3646 109.84 27.1105 110.475 26.5598C111.111 26.0091 111.577 25.2466 111.916 24.23H112.128L111.238 28.2118H101.156V28H101.41Z" fill="#555555"/>
<path d="M113.271 28.0002C113.61 28.0002 113.906 27.8731 114.118 27.6613C114.372 27.4071 114.499 27.153 114.499 26.8141V15.9699C114.499 15.631 114.372 15.3345 114.118 15.1227C113.864 14.8685 113.61 14.7838 113.271 14.7838H113.017V14.572H118.947V14.7838H118.693C118.354 14.7838 118.057 14.9109 117.803 15.1227C117.549 15.3769 117.422 15.631 117.422 15.9699V26.7717C117.422 27.1106 117.549 27.4071 117.803 27.6189C118.057 27.8731 118.354 27.9578 118.693 27.9578H118.947V28.1696H113.017V27.9578H113.271V28.0002Z" fill="#555555"/>
<path d="M138.136 28H138.433V28.2118H132.587V28.0424H132.883C133.095 28.0424 133.307 27.9577 133.434 27.7882C133.604 27.6188 133.646 27.4494 133.646 27.2376L132.883 20.1634L129.24 26.4751C128.775 27.2799 128.52 28 128.52 28.6354H128.309L123.31 20.2482L122.548 27.2376C122.505 27.4494 122.59 27.6188 122.759 27.8306C122.929 28.0424 123.098 28.0848 123.31 28.0848H123.607V28.2542H119.54V28.0424H119.837C120.218 28.0424 120.514 27.9153 120.768 27.7035C121.023 27.4917 121.192 27.1952 121.234 26.814L122.844 14.3601H123.014L129.029 24.2724L134.832 14.3601H135.001L136.654 26.814C136.738 27.1952 136.865 27.4917 137.162 27.7035C137.458 27.9153 137.755 28 138.136 28Z" fill="#555555"/>
<path d="M156.436 16.4357C157.792 17.6642 158.427 19.3162 158.427 21.4342C158.427 23.5522 157.749 25.2043 156.436 26.4327C155.081 27.6612 153.301 28.2542 150.972 28.2542H143.897V28.0424H144.152C144.49 28.0424 144.787 27.9153 144.999 27.7035C145.253 27.4494 145.38 27.1952 145.38 26.8563V15.8851C145.38 15.5885 145.253 15.292 144.999 15.0802C144.745 14.8684 144.448 14.7413 144.152 14.7413H143.897V14.5295H150.972C153.259 14.5719 155.081 15.2073 156.436 16.4357ZM150.717 27.3646C151.649 27.3646 152.454 27.1105 153.132 26.6445C153.81 26.1786 154.318 25.4584 154.699 24.5689C155.081 23.6793 155.25 22.705 155.25 21.6037C155.25 20.5447 155.123 19.6551 154.911 18.8926C154.699 18.1301 154.403 17.4947 154.022 16.9864C153.217 15.9274 152.115 15.3767 150.717 15.3767H148.345V27.3223H150.717V27.3646Z" fill="#555555"/>
<path d="M159.91 28.0002C160.249 28.0002 160.545 27.8731 160.757 27.6613C161.011 27.4071 161.138 27.153 161.138 26.8141V15.9276C161.096 15.5887 161.011 15.3345 160.842 15.2074C160.545 14.9109 160.206 14.7838 159.867 14.7838H159.613V14.572H167.069C167.704 14.572 168.212 14.5297 168.636 14.445C169.06 14.3602 169.314 14.2755 169.398 14.2332V17.622H169.187V17.4102C169.187 16.6053 168.89 16.0546 168.297 15.7158C168.001 15.5463 167.662 15.4616 167.28 15.4616H164.019V21.1378H166.603C167.069 21.1378 167.492 20.9684 167.789 20.6295C168.085 20.2906 168.255 19.9094 168.255 19.4434V19.274H168.467V23.7218H168.255V23.5524C168.255 23.0864 168.085 22.6628 167.789 22.3663C167.492 22.0698 167.111 21.9003 166.645 21.9003H164.019V27.3648H166.56C167.492 27.3648 168.297 27.1106 168.932 26.5599C169.568 26.0093 170.034 25.2468 170.373 24.2301H170.585L169.695 28.212H159.613V28.0002H159.91V28.0002Z" fill="#555555"/>
<path d="M186.893 14.7837C186.427 14.7837 186.088 14.9955 185.876 15.3768C185.791 15.5462 185.706 15.758 185.706 15.9698V26.0091C185.706 26.8987 185.749 27.6188 185.876 28.2118L185.918 28.5084H185.749L175.921 19.1468V26.8563C175.921 27.1952 176.048 27.4494 176.26 27.7035C176.514 27.9153 176.769 28.0424 177.107 28.0424H177.489V28.2542H171.601V28.0424H171.939C172.278 28.0424 172.575 27.9153 172.787 27.7035C173.041 27.4917 173.126 27.1952 173.126 26.8563V16.7323C173.126 15.8851 173.083 15.165 172.956 14.5719L172.914 14.2754H173.083L182.911 23.637V15.9698C182.911 15.6309 182.784 15.3344 182.529 15.1226C182.275 14.9108 182.021 14.7837 181.682 14.7837H181.343V14.5719H187.231V14.7837H186.893V14.7837Z" fill="#555555"/>
<path d="M195.789 15.3768V26.814C195.789 27.1529 195.916 27.4494 196.17 27.6612C196.424 27.9153 196.679 28.0001 197.017 28.0001H197.272V28.2119H191.341V28.0001H191.595C191.934 28.0001 192.188 27.873 192.443 27.6612C192.697 27.407 192.824 27.1529 192.824 26.814V15.3768H190.197C189.604 15.3768 189.138 15.5886 188.757 15.9274C188.418 16.3087 188.249 16.7746 188.249 17.3677V17.6218H188.037V14.233C188.588 14.4448 189.35 14.5719 190.325 14.5719H198.246C198.627 14.5719 199.093 14.5296 199.559 14.4448C200.025 14.3601 200.364 14.2754 200.533 14.1907V17.5795H200.364V17.3677C200.364 16.5628 200.067 16.0122 199.432 15.6733C199.135 15.5038 198.797 15.4191 198.415 15.4191H195.789V15.3768Z" fill="#555555"/>
<path d="M213.453 28.0001H213.622V28.2119H207.395V28.0001H207.565C207.861 28.0001 208.073 27.9153 208.2 27.7459C208.327 27.5765 208.412 27.407 208.412 27.2376C208.412 27.0681 208.37 26.9411 208.327 26.7716L207.395 24.3994H202.863L201.846 26.7716C201.762 26.9411 201.762 27.1105 201.762 27.2376C201.762 27.407 201.846 27.5341 201.973 27.7035C202.1 27.873 202.312 27.9577 202.609 27.9577H202.778V28.1695H198.627V27.9577H198.796C199.093 27.9577 199.389 27.873 199.686 27.7035C199.982 27.5341 200.237 27.2376 200.406 26.8987L204.896 16.7323C205.489 15.4615 205.828 14.6143 205.871 14.1907H206.04L211.801 26.8987C212.013 27.2799 212.225 27.5765 212.521 27.7459C212.818 27.9153 213.114 28.0001 213.453 28.0001ZM203.159 23.5946H207.057L205.15 18.8079L203.159 23.5946Z" fill="#555555"/>
<path d="M214.088 28C214.427 28 214.724 27.873 214.935 27.6612C215.19 27.407 215.317 27.1528 215.317 26.814V16.0121C215.317 15.6733 215.19 15.3767 214.935 15.1649C214.681 14.9108 214.427 14.8261 214.088 14.8261H213.834V14.6143H219.764V14.8261H219.51C219.171 14.8261 218.875 14.9531 218.621 15.1649C218.367 15.4191 218.239 15.6733 218.239 16.0121V27.3646H220.781C221.713 27.3646 222.518 27.1105 223.153 26.5598C223.789 26.0091 224.255 25.2466 224.593 24.23H224.805L223.916 28.2118H213.834V28H214.088Z" fill="#555555"/>
<path d="M238.784 28.4661C236.285 28.4661 234.336 27.8307 232.896 26.5599C231.455 25.2891 230.735 23.5947 230.735 21.392C230.735 19.1893 231.455 17.4525 232.853 16.2241C234.251 14.9533 236.2 14.3179 238.657 14.3179C240.521 14.3179 242.173 14.6568 243.486 15.3769L243.528 18.7233H243.359C242.681 16.3512 241.198 15.1227 238.826 15.1227C237.301 15.1227 236.073 15.6734 235.183 16.7748C234.294 17.8761 233.87 19.4011 233.87 21.3073C233.87 23.2135 234.294 24.7384 235.141 25.8822C235.988 27.0259 237.132 27.5766 238.614 27.6189C240.139 27.6189 241.283 27.2377 242.045 26.4752C242.85 25.7127 243.401 24.3572 243.698 22.451H243.867L244.079 25.7974C243.062 27.6189 241.283 28.4661 238.784 28.4661Z" fill="#555555"/>
<path d="M246.07 28C246.408 28 246.705 27.873 246.917 27.6612C247.171 27.407 247.298 27.1528 247.298 26.814V16.0121C247.298 15.6733 247.171 15.3767 246.917 15.1649C246.663 14.9108 246.408 14.8261 246.07 14.8261H245.815V14.6143H251.746V14.8261H251.492C251.153 14.8261 250.856 14.9531 250.602 15.1649C250.348 15.4191 250.221 15.6733 250.221 16.0121V27.3646H252.762C253.694 27.3646 254.499 27.1105 255.135 26.5598C255.77 26.0091 256.236 25.2466 256.575 24.23H256.787L255.897 28.2118H245.815V28H246.07Z" fill="#555555"/>
<path d="M257.931 28.0002C258.27 28.0002 258.566 27.8731 258.778 27.6613C259.032 27.4071 259.159 27.153 259.159 26.8141V15.9699C259.159 15.631 259.032 15.3345 258.778 15.1227C258.524 14.8685 258.27 14.7838 257.931 14.7838H257.677V14.572H263.607V14.7838H263.353C263.014 14.7838 262.718 14.9109 262.463 15.1227C262.209 15.3769 262.082 15.631 262.082 15.9699V26.7717C262.082 27.1106 262.209 27.4071 262.463 27.6189C262.718 27.8731 263.014 27.9578 263.353 27.9578H263.607V28.1696H257.677V27.9578H257.931V28.0002Z" fill="#555555"/>
<path d="M280.255 14.7837C279.789 14.7837 279.45 14.9955 279.238 15.3768C279.154 15.5462 279.069 15.758 279.069 15.9698V26.0091C279.069 26.8987 279.111 27.6188 279.238 28.2118L279.281 28.5084H279.111L269.284 19.1468V26.8563C269.284 27.1952 269.411 27.4494 269.622 27.7035C269.877 27.9153 270.131 28.0424 270.47 28.0424H270.851V28.2542H264.963V28.0424H265.302C265.641 28.0424 265.937 27.9153 266.149 27.7035C266.403 27.4917 266.488 27.1952 266.488 26.8563V16.7323C266.488 15.8851 266.445 15.165 266.318 14.5719L266.276 14.2754H266.445L276.273 23.637V15.9698C276.273 15.6309 276.146 15.3344 275.892 15.1226C275.638 14.9108 275.383 14.7837 275.045 14.7837H274.706V14.5719H280.594V14.7837H280.255V14.7837Z" fill="#555555"/>
<path d="M281.948 28.0002C282.287 28.0002 282.584 27.8731 282.796 27.6613C283.05 27.4071 283.177 27.153 283.177 26.8141V15.9699C283.177 15.631 283.05 15.3345 282.796 15.1227C282.542 14.8685 282.287 14.7838 281.948 14.7838H281.694V14.572H287.625V14.7838H287.371C287.032 14.7838 286.735 14.9109 286.481 15.1227C286.227 15.3769 286.1 15.631 286.1 15.9699V26.7717C286.1 27.1106 286.227 27.4071 286.481 27.6189C286.735 27.8731 287.032 27.9578 287.371 27.9578H287.625V28.1696H281.694V27.9578H281.948V28.0002Z" fill="#555555"/>
<path d="M296.902 28.4661C294.403 28.4661 292.454 27.8307 291.014 26.5599C289.574 25.2891 288.854 23.5947 288.854 21.392C288.854 19.1893 289.574 17.4525 290.972 16.2241C292.369 14.9533 294.318 14.3179 296.775 14.3179C298.639 14.3179 300.291 14.6568 301.604 15.3769L301.646 18.7233H301.477C300.799 16.3512 299.316 15.1227 296.944 15.1227C295.419 15.1227 294.191 15.6734 293.301 16.7748C292.412 17.8761 291.988 19.4011 291.988 21.3073C291.988 23.2135 292.412 24.7384 293.259 25.8822C294.106 27.0259 295.25 27.5766 296.732 27.6189C298.257 27.6189 299.401 27.2377 300.164 26.4752C300.968 25.7127 301.519 24.3572 301.816 22.451H301.985L302.197 25.7974C301.18 27.6189 299.401 28.4661 296.902 28.4661Z" fill="#555555"/>
<path d="M53.2042 7.45537C53.2042 9.44629 51.5946 11.056 49.6036 11.056C47.6127 11.056 46.003 9.44629 46.003 7.45537C46.003 5.46445 47.6127 3.85477 49.6036 3.85477C51.5946 3.85477 53.2042 5.46445 53.2042 7.45537ZM53.2466 0.889561C40.8351 1.14372 39.6914 15.0802 31.9818 15.0802C27.1952 15.0802 21.7731 3.21936 16.0121 1.65204C11.7761 0.550681 6.56581 0 1.77912 0C0.423601 0 0 1.44024 0 1.9062C0 2.37216 3.85477 56 3.85477 56H13.0893C13.0893 56 12.7927 28 32.3207 26.6021C38.59 26.1362 43.5038 33.761 44.2663 40.5386C45.2829 49.6036 44.1392 56.0424 44.1392 56.0424H51.4675L55.9576 1.60968C55.9576 1.60968 56.466 0.804841 53.2466 0.889561Z" fill="#555555"/>
<path d="M70.5723 45.8761V37.3193H75.7402V38.5054H71.8431V41.1317H75.4013V42.2755H71.8431V45.8337H70.5723V45.8761Z" fill="black"/>
<path d="M77.3926 45.8759L80.3578 37.3616H81.7557L84.7209 45.8759H83.3653L82.5605 43.5038H79.5106L78.7057 45.8759H77.3926V45.8759ZM80.9932 38.8018L79.8071 42.4448H82.264L81.0779 38.8018H80.9932Z" fill="black"/>
<path d="M87.4736 45.8761V37.3193H88.7444L91.4131 43.4192H91.4555L94.1242 37.3193H95.395V45.8337H94.2089V39.9033H94.1242L91.8791 44.9865H90.9048L88.6174 39.9033H88.575V45.8761H87.4736Z" fill="black"/>
<path d="M99.0811 45.8761V37.3193H100.352V45.8337H99.0811V45.8761Z" fill="black"/>
<path d="M109.035 45.8761H103.909V37.3193H105.18V44.6476H108.992V45.8761H109.035Z" fill="black"/>
<path d="M112.848 45.8761V42.4025L110.01 37.3193H111.45L113.483 41.0047H113.526L115.559 37.3193H116.999L114.161 42.3602V45.8337H112.848V45.8761Z" fill="black"/>
<path d="M122.887 45.8759L125.852 37.3616H127.25L130.215 45.8759H128.859L128.055 43.5038H124.962L124.158 45.8759H122.887V45.8759ZM126.487 38.8018L125.301 42.4448H127.758L126.572 38.8018H126.487Z" fill="black"/>
<path d="M132.969 45.8761V37.3193H134.155L138.264 43.5039H138.306V37.3193H139.535V45.8337H138.348L134.282 39.6491H134.24V45.8337H132.969V45.8761Z" fill="black"/>
<path d="M145.973 37.3193C148.727 37.3193 149.743 39.0561 149.743 41.5553C149.743 44.0122 148.769 45.8337 145.973 45.8337H143.093V37.3193H145.973ZM144.406 44.69H145.846C147.583 44.69 148.388 43.7157 148.388 41.5977C148.388 39.7339 147.71 38.5054 145.846 38.5054H144.406V44.69Z" fill="black"/>
<path d="M162.282 45.8761H157.029V37.3193H162.282V38.5054H158.342V40.9623H162.07V42.106H158.342V44.69H162.282V45.8761Z" fill="black"/>
<path d="M166.221 43.5038C166.306 44.2663 166.984 44.9017 168.212 44.9017C169.356 44.9017 170.034 44.3933 170.034 43.5461C170.034 42.9107 169.61 42.5295 168.678 42.3177L167.238 41.9788C166.179 41.7247 165.205 41.0469 165.205 39.6914C165.205 38.0817 166.645 37.1921 168.255 37.1921C169.822 37.1921 171.262 38.0817 171.262 39.6914H170.034C169.949 38.9713 169.398 38.3359 168.255 38.3359C167.238 38.3359 166.56 38.8018 166.56 39.6067C166.56 40.1573 166.941 40.5809 167.746 40.7504L169.186 41.0893C170.5 41.3858 171.432 42.0212 171.432 43.4614C171.432 45.1558 170.076 46.0878 168.17 46.0878C165.84 46.0878 165.035 44.6899 165.035 43.5461H166.221V43.5038Z" fill="black"/>
<path d="M176.176 45.8761V38.5054H173.635V37.3193H179.989V38.5054H177.447V45.8337H176.176V45.8761Z" fill="black"/>
<path d="M188.08 45.8761V42.0637H184.013V45.8761H182.742V37.3193H184.013V40.8776H188.08V37.3193H189.35V45.8337H188.08V45.8761Z" fill="black"/>
<path d="M198.203 45.8761H192.95V37.3193H198.203V38.5054H194.263V40.9623H197.991V42.106H194.263V44.69H198.203V45.8761Z" fill="black"/>
<path d="M203.159 45.8761V38.5054H200.617V37.3193H206.971V38.5054H204.43V45.8337H203.159V45.8761Z" fill="black"/>
<path d="M209.81 45.8761V37.3193H211.08V45.8337H209.81V45.8761Z" fill="black"/>
<path d="M215.614 42.1907C215.614 44.0122 216.461 44.8594 217.774 44.8594C219.045 44.8594 219.68 44.0546 219.68 43.165H220.951V43.2497C220.951 44.6053 219.892 46.0879 217.732 46.0879C215.614 46.0879 214.343 44.7323 214.343 42.2331V41.0894C214.343 38.6325 215.656 37.2346 217.774 37.2346C219.85 37.2346 220.993 38.6749 220.993 40.1575V40.2422H219.723C219.723 39.3103 219.045 38.4207 217.774 38.4207C216.503 38.4207 215.656 39.3526 215.656 41.1317V42.1907H215.614Z" fill="black"/>
<path d="M231.159 37.3193C233.913 37.3193 234.929 39.0561 234.929 41.5553C234.929 44.0122 233.955 45.8337 231.159 45.8337H228.321V37.3193H231.159ZM229.592 44.69H231.032C232.769 44.69 233.574 43.7157 233.574 41.5977C233.574 39.7339 232.896 38.5054 231.032 38.5054H229.592V44.69Z" fill="black"/>
<path d="M243.316 45.8761H238.063V37.3193H243.316V38.5054H239.334V40.9623H243.062V42.106H239.334V44.69H243.274V45.8761H243.316Z" fill="black"/>
<path d="M246.621 45.8761V37.3193H247.807L251.916 43.5039H251.958V37.3193H253.187V45.8337H252.001L247.892 39.6491H247.85V45.8337H246.621V45.8761Z" fill="black"/>
<path d="M258.439 45.8761V38.5054H255.897V37.3193H262.251V38.5054H259.71V45.8337H258.439V45.8761Z" fill="black"/>
<path d="M265.09 45.8761V37.3193H266.361V45.8337H265.09V45.8761Z" fill="black"/>
<path d="M270.596 43.5038C270.681 44.2663 271.359 44.9017 272.587 44.9017C273.731 44.9017 274.409 44.3933 274.409 43.5461C274.409 42.9107 273.985 42.5295 273.053 42.3177L271.613 41.9788C270.554 41.7247 269.58 41.0469 269.58 39.6914C269.58 38.0817 271.02 37.1921 272.63 37.1921C274.197 37.1921 275.637 38.0817 275.637 39.6914H274.409C274.324 38.9713 273.773 38.3359 272.63 38.3359C271.613 38.3359 270.935 38.8018 270.935 39.6067C270.935 40.1573 271.316 40.5809 272.121 40.7504L273.561 41.0893C274.875 41.3858 275.807 42.0212 275.807 43.4614C275.807 45.1558 274.451 46.0878 272.545 46.0878C270.215 46.0878 269.41 44.6899 269.41 43.5461H270.596V43.5038Z" fill="black"/>
<path d="M280.551 45.8761V38.5054H278.01V37.3193H284.364V38.5054H281.822V45.8337H280.551V45.8761Z" fill="black"/>
<path d="M293.09 39.9457C293.09 41.3435 292.243 42.0637 291.523 42.3178L293.259 45.8337H291.819L290.252 42.5296H288.388V45.8337H287.117V37.3193H290.294C292.2 37.3193 293.09 38.5478 293.09 39.9457ZM290.082 41.4706C291.184 41.4706 291.777 40.9623 291.777 39.988C291.777 38.9714 291.099 38.4631 290.125 38.4631H288.388V41.4706H290.082Z" fill="black"/>
<path d="M298.088 45.8761V42.4025L295.25 37.3193H296.69L298.724 41.0047H298.766L300.799 37.3193H302.239L299.401 42.3602V45.8337H298.088V45.8761Z" fill="black"/>
<path d="M55.8301 54.4328V51.7642H56.9738C57.2703 51.7642 57.4821 51.8065 57.6092 51.8489C57.7363 51.8912 57.821 51.976 57.9057 52.103C57.9904 52.2301 58.0328 52.3572 58.0328 52.5266C58.0328 52.7384 57.9904 52.9079 57.8634 53.035C57.7363 53.162 57.5668 53.2468 57.355 53.2891C57.4821 53.3738 57.5668 53.4162 57.6516 53.5009C57.7363 53.5856 57.821 53.7127 57.9481 53.9245L58.287 54.4328H57.6516L57.2703 53.8398C57.1432 53.628 57.0585 53.5009 56.9738 53.4586C56.9314 53.4162 56.8891 53.3738 56.8044 53.3315C56.7196 53.2891 56.6773 53.2891 56.5502 53.2891H56.4231V54.3905H55.8301V54.4328ZM56.3808 52.9079H56.762C57.0162 52.9079 57.1856 52.9079 57.228 52.8655C57.3127 52.8232 57.355 52.8232 57.3974 52.7384C57.4398 52.6961 57.4398 52.6114 57.4398 52.5266C57.4398 52.4419 57.3974 52.3572 57.355 52.3148C57.3127 52.2725 57.228 52.2301 57.1432 52.2301C57.1009 52.2301 56.9738 52.2301 56.762 52.2301H56.3384V52.9079H56.3808Z" fill="#555555"/>
<path d="M56.8048 55.7883C55.3222 55.7883 54.0938 54.5599 54.0938 53.0773C54.0938 51.5947 55.3222 50.3662 56.8048 50.3662C58.2874 50.3662 59.5158 51.5947 59.5158 53.0773C59.5158 54.5599 58.2874 55.7883 56.8048 55.7883ZM56.8048 50.9593C55.6187 50.9593 54.6868 51.8912 54.6868 53.0773C54.6868 54.2633 55.6187 55.1953 56.8048 55.1953C57.9909 55.1953 58.9228 54.2633 58.9228 53.0773C58.9228 51.9335 57.9485 50.9593 56.8048 50.9593Z" fill="#555555"/>
</g>
<defs>
<clipPath id="clip0_641_1209">
<rect width="302.239" height="56" fill="white"/>
</clipPath>
</defs>
</svg>
