<svg xmlns="http://www.w3.org/2000/svg" width="400" height="74.12" viewBox="0 0 400 74.12"><title>logo-halimdentalclinic</title><path d="M105.94,37.07a1.47,1.47,0,0,0,1-.33,1.89,1.89,0,0,0,.62-1.27V28.91H99.25v6.54a1.51,1.51,0,0,0,.49,1.14,1.59,1.59,0,0,0,1.16.48h.31l0,.26H93.4v-.26h.34a1.56,1.56,0,0,0,1.15-.48,1.68,1.68,0,0,0,.5-1.14V21.18a1.7,1.7,0,0,0-.5-1.14,1.56,1.56,0,0,0-1.15-.48H93.4V19.3h7.83l0,.26h-.31a1.59,1.59,0,0,0-1.16.48,1.53,1.53,0,0,0-.49,1.14V27.8h8.34V21.18a1.66,1.66,0,0,0-.5-1.14,1.56,1.56,0,0,0-1.15-.48h-.33V19.3h7.83v.26h-.34a1.6,1.6,0,0,0-1.16.48,1.57,1.57,0,0,0-.49,1.14V35.45a1.55,1.55,0,0,0,.49,1.14,1.6,1.6,0,0,0,1.16.48h.34v.26h-7.83v-.26Z" fill="#555"/><path d="M133.34,37.07h.23v.26h-8.21v-.26h.23a1,1,0,0,0,.84-.35,1.09,1.09,0,0,0,.27-.65,1.68,1.68,0,0,0-.13-.62l-1.26-3.17h-6l-1.34,3.17a1.87,1.87,0,0,0-.13.63,1,1,0,0,0,.29.64,1,1,0,0,0,.85.35h.2v.26h-5.51v-.26h.23a2.28,2.28,0,0,0,1.19-.36,2.8,2.8,0,0,0,1-1.08L122,22.16a13.46,13.46,0,0,0,1.29-3.37h.23l7.65,16.79a2.78,2.78,0,0,0,1,1.12A2.22,2.22,0,0,0,133.34,37.07ZM119.72,31.2h5.15l-2.5-6.33Z" fill="#555"/><path d="M134.19,37.07a1.54,1.54,0,0,0,1.14-.48,1.65,1.65,0,0,0,.51-1.14V21.18a1.67,1.67,0,0,0-.51-1.14,1.54,1.54,0,0,0-1.14-.48h-.34V19.3h7.83l0,.26h-.3a1.59,1.59,0,0,0-1.16.48,1.53,1.53,0,0,0-.49,1.14v15h3.37a4.71,4.71,0,0,0,3.15-1.08,6.37,6.37,0,0,0,1.9-3.06h.25l-1.18,5.25H133.85v-.26Z" fill="#555"/><path d="M149.89,37.07a1.56,1.56,0,0,0,1.15-.48,1.64,1.64,0,0,0,.5-1.14V21.16a1.66,1.66,0,0,0-1.65-1.6h-.33V19.3h7.83l0,.26h-.31a1.63,1.63,0,0,0-1.16.47,1.5,1.5,0,0,0-.49,1.13V35.45a1.55,1.55,0,0,0,.49,1.14,1.6,1.6,0,0,0,1.16.48h.31l0,.26h-7.83v-.26Z" fill="#555"/><path d="M182.8,37.07h.41v.26h-7.72V37.1h.38a1.11,1.11,0,0,0,.75-.36,1,1,0,0,0,.26-.75l-1-9.35L171,35a6,6,0,0,0-1,2.85h-.25l-6.62-11.12-1,9.27a1,1,0,0,0,.26.76,1,1,0,0,0,.75.35h.38v.23h-5.38v-.26h.42a1.88,1.88,0,0,0,1.24-.44,1.76,1.76,0,0,0,.64-1.18l2.13-16.51h.23l8,13.14,7.67-13.14h.23l2.19,16.51a1.82,1.82,0,0,0,.66,1.18A1.85,1.85,0,0,0,182.8,37.07Z" fill="#555"/><path d="M207,21.73a8.5,8.5,0,0,1,2.65,6.59A8.51,8.51,0,0,1,207,34.91a10.32,10.32,0,0,1-7.21,2.42h-9.35v-.26h.34a1.56,1.56,0,0,0,1.14-.48,1.6,1.6,0,0,0,.5-1.14V21a1.29,1.29,0,0,0-.5-1,1.69,1.69,0,0,0-1.14-.43h-.34V19.3h9.35A10.28,10.28,0,0,1,207,21.73Zm-7.55,14.49a5.46,5.46,0,0,0,3.21-.95,6,6,0,0,0,2.07-2.74,10.4,10.4,0,0,0,.72-3.9,13.38,13.38,0,0,0-.42-3.6,8,8,0,0,0-1.2-2.51,5.18,5.18,0,0,0-4.38-2.13h-3.16V36.22Z" fill="#555"/><path d="M211.61,37.07a1.53,1.53,0,0,0,1.14-.48,1.65,1.65,0,0,0,.51-1.14V21.11a1.46,1.46,0,0,0-.39-1,1.86,1.86,0,0,0-1.26-.57h-.34V19.3h9.87a9.27,9.27,0,0,0,2.08-.19,9.74,9.74,0,0,0,1-.27v4.51l-.26,0V23a2.4,2.4,0,0,0-1.19-2.27,2.8,2.8,0,0,0-1.34-.36h-4.32V27.9h3.4a2.17,2.17,0,0,0,2.19-2.21v-.23H223v5.95h-.25V31.2a2.17,2.17,0,0,0-.61-1.57,2.1,2.1,0,0,0-1.53-.64h-3.45v7.23h3.37a4.73,4.73,0,0,0,3.16-1.08,6.36,6.36,0,0,0,1.89-3.06h.26l-1.19,5.25H211.27v-.26Z" fill="#555"/><path d="M247.37,19.56a1.5,1.5,0,0,0-1.36.77,1.58,1.58,0,0,0-.23.78V34.39A15,15,0,0,0,246,37.3l.07.39h-.23l-13-12.39V35.53a1.45,1.45,0,0,0,.46,1.09,1.54,1.54,0,0,0,1.11.45h.49v.26h-7.8v-.26h.46a1.58,1.58,0,0,0,1.14-.45,1.52,1.52,0,0,0,.46-1.12V22.14a14.91,14.91,0,0,0-.23-2.84l-.05-.38h.23l13,12.38V21.13a1.61,1.61,0,0,0-.49-1.12,1.54,1.54,0,0,0-1.11-.45h-.46V19.3h7.8v.26Z" fill="#555"/><path d="M259.14,20.36V35.47a1.64,1.64,0,0,0,1.65,1.6h.3l0,.26h-7.83v-.26h.34a1.55,1.55,0,0,0,1.12-.46,1.71,1.71,0,0,0,.53-1.11V20.36H251.8A2.47,2.47,0,0,0,249.23,23v.31H249V18.82a8.62,8.62,0,0,0,3,.46h10.37a11.16,11.16,0,0,0,1.74-.15,7.05,7.05,0,0,0,1.3-.31V23.3h-.26V23A2.38,2.38,0,0,0,264,20.72a2.88,2.88,0,0,0-1.36-.36Z" fill="#555"/><path d="M282.49,37.07h.23v.26h-8.21v-.26h.23a1,1,0,0,0,.84-.35,1.09,1.09,0,0,0,.27-.65,1.68,1.68,0,0,0-.13-.62l-1.26-3.17h-6l-1.34,3.17a1.87,1.87,0,0,0-.13.63,1.1,1.1,0,0,0,1.14,1h.2v.26h-5.51v-.26H263a2.28,2.28,0,0,0,1.18-.36,2.8,2.8,0,0,0,1-1.08l5.95-13.47a13.71,13.71,0,0,0,1.28-3.37h.24l7.64,16.79a2.85,2.85,0,0,0,1,1.12A2.25,2.25,0,0,0,282.49,37.07ZM268.87,31.2H274l-2.5-6.33Z" fill="#555"/><path d="M283.34,37.07a1.56,1.56,0,0,0,1.15-.48,1.68,1.68,0,0,0,.5-1.14V21.18a1.7,1.7,0,0,0-.5-1.14,1.56,1.56,0,0,0-1.15-.48H283V19.3h7.82l0,.26h-.31a1.59,1.59,0,0,0-1.16.48,1.53,1.53,0,0,0-.49,1.14v15h3.37a4.71,4.71,0,0,0,3.16-1.08,6.36,6.36,0,0,0,1.89-3.06h.26l-1.19,5.25H283v-.26Z" fill="#555"/><path d="M316,37.68a11.47,11.47,0,0,1-7.8-2.51,8.66,8.66,0,0,1-2.83-6.85,8.74,8.74,0,0,1,2.81-6.87,11.13,11.13,0,0,1,7.69-2.51,13.89,13.89,0,0,1,6.42,1.39l.05,4.43h-.21q-1.31-4.73-6-4.73a5.82,5.82,0,0,0-4.8,2.2,9.31,9.31,0,0,0-1.76,6,9.85,9.85,0,0,0,1.68,6.05,5.64,5.64,0,0,0,4.57,2.32,6.36,6.36,0,0,0,4.56-1.5c1.06-1,1.8-2.79,2.21-5.3h.21l.26,4.43C321.68,36.54,319.33,37.68,316,37.68Z" fill="#555"/><path d="M325.64,37.07a1.56,1.56,0,0,0,1.15-.48,1.64,1.64,0,0,0,.5-1.14V21.18a1.66,1.66,0,0,0-.5-1.14,1.56,1.56,0,0,0-1.15-.48h-.33V19.3h7.83l0,.26h-.31a1.6,1.6,0,0,0-1.16.48,1.57,1.57,0,0,0-.49,1.14v15h3.38a4.71,4.71,0,0,0,3.15-1.08,6.36,6.36,0,0,0,1.89-3.06h.26l-1.19,5.25H325.31v-.26Z" fill="#555"/><path d="M341.35,37.07a1.54,1.54,0,0,0,1.14-.48,1.65,1.65,0,0,0,.51-1.14V21.16a1.59,1.59,0,0,0-.51-1.13,1.57,1.57,0,0,0-1.14-.47H341V19.3h7.83l0,.26h-.31a1.62,1.62,0,0,0-1.16.47,1.46,1.46,0,0,0-.49,1.13V35.45a1.51,1.51,0,0,0,.49,1.14,1.59,1.59,0,0,0,1.16.48h.31l0,.26H341v-.26Z" fill="#555"/><path d="M370.91,19.56a1.5,1.5,0,0,0-1.37.77,1.69,1.69,0,0,0-.23.78V34.39a15.87,15.87,0,0,0,.23,2.91l.08.39h-.23l-13-12.39V35.53a1.46,1.46,0,0,0,.47,1.09,1.53,1.53,0,0,0,1.1.45h.49v.26h-7.8v-.26h.47a1.57,1.57,0,0,0,1.13-.45,1.49,1.49,0,0,0,.46-1.12V22.14a14.14,14.14,0,0,0-.23-2.84l-.05-.38h.23l13,12.38V21.13a1.57,1.57,0,0,0-.49-1.12,1.5,1.5,0,0,0-1.1-.45h-.47V19.3h7.81v.26Z" fill="#555"/><path d="M373.15,37.07a1.56,1.56,0,0,0,1.14-.48,1.6,1.6,0,0,0,.5-1.14V21.16a1.54,1.54,0,0,0-.5-1.13,1.59,1.59,0,0,0-1.14-.47h-.34V19.3h7.83l0,.26h-.31a1.65,1.65,0,0,0-1.16.47,1.49,1.49,0,0,0-.48,1.13V35.45a1.54,1.54,0,0,0,.48,1.14,1.62,1.62,0,0,0,1.16.48h.31l0,.26h-7.83v-.26Z" fill="#555"/><path d="M393,37.68q-5,0-7.81-2.51a8.7,8.7,0,0,1-2.83-6.85,8.77,8.77,0,0,1,2.81-6.87,11.15,11.15,0,0,1,7.7-2.51,13.85,13.85,0,0,1,6.41,1.39l0,4.43h-.21q-1.31-4.73-6-4.73a5.82,5.82,0,0,0-4.8,2.2,9.37,9.37,0,0,0-1.76,6,9.85,9.85,0,0,0,1.68,6.05,5.65,5.65,0,0,0,4.58,2.32,6.32,6.32,0,0,0,4.55-1.5c1.07-1,1.8-2.79,2.22-5.3h.2l.26,4.43C398.61,36.54,396.26,37.68,393,37.68Z" fill="#555"/><path d="M70.4,9.88a4.79,4.79,0,1,1-4.79-4.79A4.79,4.79,0,0,1,70.4,9.88m0-8.72c-16.41.33-18,18.77-28.17,18.77C36,19.93,28.78,4.22,21.14,2.19A76.36,76.36,0,0,0,2.34,0C.54,0,0,1.92,0,2.49S5.12,74.07,5.12,74.07H17.34S17,37,42.8,35.17c8.29-.6,14.82,9.49,15.82,18.43a78.83,78.83,0,0,1-.2,20.52h9.71l5.93-72s.66-1-3.61-.95" fill="#555"/><path d="M93.4,60.69V49.4h6.85V51H95.11v3.49h4.7V56h-4.7v4.69Z" fill="#231f20"/><path d="M102.41,60.69l3.93-11.29h1.84l3.93,11.29h-1.82l-1.06-3.15h-4l-1.06,3.15Zm4.77-9.36-1.58,4.8h3.24l-1.59-4.8Z" fill="#231f20"/><path d="M115.77,60.69V49.4h1.7L121,57.48h.07l3.54-8.08h1.7V60.69h-1.55v-7.9h-.09l-3,6.73h-1.3l-3-6.73h-.08v7.9Z" fill="#231f20"/><path d="M131.11,60.69V49.4h1.7V60.69Z" fill="#231f20"/><path d="M144.33,60.69h-6.77V49.4h1.7v9.69h5.07Z" fill="#231f20"/><path d="M149.36,60.69V56.11l-3.77-6.71h1.92l2.67,4.9h.08L153,49.4h1.89l-3.77,6.68v4.61Z" fill="#231f20"/><path d="M162.63,60.69l3.94-11.29h1.84l3.93,11.29h-1.82l-1.06-3.15h-4.05l-1.06,3.15Zm4.78-9.36-1.59,4.8h3.24l-1.58-4.8Z" fill="#231f20"/><path d="M176,60.69V49.4h1.54l5.43,8.17H183V49.4h1.65V60.69h-1.54l-5.44-8.19h-.07v8.19Z" fill="#231f20"/><path d="M193.2,49.4c3.64,0,5,2.33,5,5.63s-1.3,5.66-5,5.66h-3.78V49.4Zm-2.08,9.74h1.93c2.29,0,3.39-1.29,3.39-4.08,0-2.45-.91-4.11-3.39-4.11h-1.93Z" fill="#231f20"/><path d="M214.77,60.69h-6.93V49.4h6.93V51h-5.24v3.25h4.95V55.7h-4.95v3.44h5.24Z" fill="#231f20"/><path d="M220,57.56c.1,1,1,1.83,2.64,1.83s2.43-.68,2.43-1.77c0-.87-.58-1.34-1.81-1.63l-1.91-.47a3.08,3.08,0,0,1-2.71-3c0-2.16,1.89-3.33,4-3.33s4,1.16,4,3.28H225c-.09-1-.86-1.77-2.38-1.77-1.33,0-2.26.61-2.26,1.68,0,.74.51,1.27,1.57,1.52l1.89.46c1.71.41,3,1.22,3,3.13,0,2.22-1.82,3.46-4.29,3.46-3.08,0-4.12-1.83-4.16-3.36Z" fill="#231f20"/><path d="M233.17,60.69V51h-3.34V49.4h8.4V51h-3.35v9.71Z" fill="#231f20"/><path d="M248.91,60.69v-5h-5.38v5h-1.7V49.4h1.7v4.7h5.38V49.4h1.7V60.69Z" fill="#231f20"/><path d="M262.3,60.69h-6.94V49.4h6.94V51h-5.24v3.25H262V55.7h-4.94v3.44h5.24Z" fill="#231f20"/><path d="M268.87,60.69V51h-3.35V49.4h8.4V51h-3.35v9.71Z" fill="#231f20"/><path d="M277.65,60.69V49.4h1.71V60.69Z" fill="#231f20"/><path d="M285.38,55.83c0,2.39,1.12,3.5,2.84,3.5a2.28,2.28,0,0,0,2.55-2.26h1.66v.12c0,1.79-1.38,3.73-4.26,3.73s-4.51-1.8-4.51-5.08V54.31c0-3.24,1.76-5.13,4.52-5.13a3.92,3.92,0,0,1,4.25,3.88v.12h-1.66a2.43,2.43,0,0,0-2.58-2.42c-1.68,0-2.81,1.21-2.81,3.56Z" fill="#231f20"/><path d="M306,49.4c3.64,0,5,2.33,5,5.63s-1.29,5.66-5,5.66h-3.79V49.4Zm-2.08,9.74h1.92c2.29,0,3.39-1.29,3.39-4.08,0-2.45-.9-4.11-3.39-4.11h-1.92Z" fill="#231f20"/><path d="M322,60.69h-6.93V49.4H322V51h-5.24v3.25h4.94V55.7h-4.94v3.44H322Z" fill="#231f20"/><path d="M326.38,60.69V49.4h1.54l5.43,8.17h.08V49.4h1.65V60.69h-1.54L328.1,52.5H328v8.19Z" fill="#231f20"/><path d="M342,60.69V51h-3.34V49.4h8.4V51h-3.35v9.71Z" fill="#231f20"/><path d="M350.82,60.69V49.4h1.7V60.69Z" fill="#231f20"/><path d="M358.15,57.56c.1,1,1,1.83,2.64,1.83,1.5,0,2.43-.68,2.43-1.77,0-.87-.59-1.34-1.81-1.63l-1.91-.47a3.08,3.08,0,0,1-2.72-3c0-2.16,1.9-3.33,4-3.33s4,1.16,4,3.28h-1.65c-.09-1-.86-1.77-2.37-1.77-1.33,0-2.27.61-2.27,1.68,0,.74.52,1.27,1.57,1.52l1.9.46c1.71.41,3,1.22,3,3.13,0,2.22-1.82,3.46-4.29,3.46-3.09,0-4.13-1.83-4.17-3.36Z" fill="#231f20"/><path d="M371.31,60.69V51H368V49.4h8.4V51H373v9.71Z" fill="#231f20"/><path d="M387.91,52.87A3.19,3.19,0,0,1,385.83,56l2.29,4.66h-1.93l-2.05-4.35h-2.48v4.35H380V49.4h4.23C386.75,49.4,387.91,51,387.91,52.87Zm-4,2c1.47,0,2.26-.69,2.26-1.94a1.94,1.94,0,0,0-2.21-2h-2.29v4Z" fill="#231f20"/><path d="M394.53,60.69V56.11l-3.77-6.71h1.92l2.67,4.9h.08l2.69-4.9H400l-3.77,6.68v4.61Z" fill="#231f20"/></svg>