<svg xmlns="http://www.w3.org/2000/svg" width="442.38" height="81.72" viewBox="0 0 442.38 81.72"><title>logo-halimdentalclinic</title><path d="M116.81,40.87A1.61,1.61,0,0,0,118,40.5a2.07,2.07,0,0,0,.68-1.39V31.87h-9.2v7.22a1.69,1.69,0,0,0,.54,1.26,1.77,1.77,0,0,0,1.28.52h.34l0,.29H103v-.29h.37a1.71,1.71,0,0,0,1.26-.52,1.82,1.82,0,0,0,.55-1.26V23.36a1.85,1.85,0,0,0-.55-1.27,1.71,1.71,0,0,0-1.26-.52H103v-.28h8.63l0,.28h-.34a1.77,1.77,0,0,0-1.28.52,1.72,1.72,0,0,0-.54,1.27v7.29h9.2V23.36a1.85,1.85,0,0,0-.55-1.27,1.74,1.74,0,0,0-1.27-.52h-.37v-.28h8.63v.28h-.37a1.75,1.75,0,0,0-1.27.52,1.72,1.72,0,0,0-.54,1.27V39.09a1.69,1.69,0,0,0,.54,1.26,1.75,1.75,0,0,0,1.27.52h.37v.29h-8.63v-.29Z" fill="#555"/><path d="M147,40.87h.25v.29h-9.05v-.29h.25a1.09,1.09,0,0,0,.93-.38,1.26,1.26,0,0,0,.29-.72,1.63,1.63,0,0,0-.14-.68l-1.39-3.5h-6.64L130,39.09a2,2,0,0,0-.14.69,1.15,1.15,0,0,0,.31.71,1.13,1.13,0,0,0,.94.38h.23v.29H125.3v-.29h.26a2.51,2.51,0,0,0,1.3-.39,3,3,0,0,0,1.08-1.2l6.56-14.84a15.33,15.33,0,0,0,1.42-3.72h.25l8.43,18.51a3.13,3.13,0,0,0,1.08,1.23A2.44,2.44,0,0,0,147,40.87ZM132,34.4h5.68l-2.76-7Z" fill="#555"/><path d="M148,40.87a1.72,1.72,0,0,0,1.27-.52,1.82,1.82,0,0,0,.55-1.26V23.36a1.85,1.85,0,0,0-.55-1.27,1.72,1.72,0,0,0-1.27-.52h-.36v-.28h8.62l0,.28h-.34a1.76,1.76,0,0,0-1.28.52,1.72,1.72,0,0,0-.54,1.27V39.94h3.72a5.18,5.18,0,0,0,3.48-1.2,7,7,0,0,0,2.08-3.37h.29l-1.31,5.79h-14.7v-.29Z" fill="#555"/><path d="M165.27,40.87a1.71,1.71,0,0,0,1.26-.52,1.84,1.84,0,0,0,.56-1.26V23.33a1.79,1.79,0,0,0-.56-1.25,1.74,1.74,0,0,0-1.26-.51h-.37v-.28h8.63l0,.28h-.34a1.77,1.77,0,0,0-1.27.51,1.66,1.66,0,0,0-.54,1.25V39.09a1.69,1.69,0,0,0,.54,1.26,1.74,1.74,0,0,0,1.27.52h.34l0,.29H164.9v-.29Z" fill="#555"/><path d="M201.55,40.87H202v.29h-8.52V40.9h.42a1.18,1.18,0,0,0,.83-.4,1,1,0,0,0,.28-.82l-1.11-10.3-5.33,9.19a6.65,6.65,0,0,0-1.08,3.15h-.29l-7.29-12.26-1.11,10.22a1,1,0,0,0,.29.84,1.06,1.06,0,0,0,.82.38h.42v.26h-5.93v-.29h.46a2.08,2.08,0,0,0,1.37-.48,2,2,0,0,0,.7-1.3l2.35-18.2h.26l8.8,14.48,8.46-14.48h.26l2.41,18.2a2.06,2.06,0,0,0,2.07,1.78Z" fill="#555"/><path d="M228.26,24a9.37,9.37,0,0,1,2.93,7.27,9.35,9.35,0,0,1-2.93,7.27,11.3,11.3,0,0,1-7.94,2.67H210v-.29h.37a1.71,1.71,0,0,0,1.26-.52,1.84,1.84,0,0,0,.56-1.26V23.19a1.44,1.44,0,0,0-.56-1.15,1.91,1.91,0,0,0-1.26-.47H210v-.28h10.31A11.3,11.3,0,0,1,228.26,24Zm-8.31,16a6,6,0,0,0,3.53-1,6.62,6.62,0,0,0,2.29-3,11.38,11.38,0,0,0,.79-4.3,14.23,14.23,0,0,0-.47-4,8.39,8.39,0,0,0-1.32-2.77A5.68,5.68,0,0,0,220,22.48h-3.49V39.94Z" fill="#555"/><path d="M233.32,40.87a1.71,1.71,0,0,0,1.26-.52,1.78,1.78,0,0,0,.55-1.26V23.27a1.58,1.58,0,0,0-.42-1.08,2.1,2.1,0,0,0-1.39-.62H233v-.28h10.87a10.34,10.34,0,0,0,2.3-.22,8.27,8.27,0,0,0,1.11-.3v5l-.29,0V25.4a2.65,2.65,0,0,0-1.3-2.5,3.15,3.15,0,0,0-1.48-.39h-4.77v8.26h3.75a2.39,2.39,0,0,0,1.73-.73,2.31,2.31,0,0,0,.68-1.71v-.26h.29v6.56h-.29V34.4A2.34,2.34,0,0,0,243.2,32h-3.81v8h3.72a5.18,5.18,0,0,0,3.48-1.2,7.05,7.05,0,0,0,2.09-3.37H249l-1.31,5.79H233v-.29Z" fill="#555"/><path d="M272.75,21.57a1.64,1.64,0,0,0-1.5.85,1.73,1.73,0,0,0-.26.85V37.92a16.24,16.24,0,0,0,.26,3.21l.08.42h-.26L256.74,27.9V39.17a1.63,1.63,0,0,0,.51,1.21,1.69,1.69,0,0,0,1.22.49H259v.29h-8.6v-.29h.51a1.73,1.73,0,0,0,1.25-.49,1.67,1.67,0,0,0,.51-1.24V24.41a15.88,15.88,0,0,0-.26-3.12l0-.43h.25L267,34.51V23.3a1.75,1.75,0,0,0-.54-1.23,1.7,1.7,0,0,0-1.22-.5h-.51v-.28h8.6v.28Z" fill="#555"/><path d="M285.72,22.45V39.11a1.77,1.77,0,0,0,.56,1.25,1.74,1.74,0,0,0,1.26.51h.34l0,.29h-8.63v-.29h.37a1.71,1.71,0,0,0,1.23-.51,1.81,1.81,0,0,0,.58-1.22V22.45h-3.83a2.83,2.83,0,0,0-2.07.82,2.86,2.86,0,0,0-.77,2.07v.35h-.28V20.75a9.49,9.49,0,0,0,3.35.51H289.3a12.29,12.29,0,0,0,1.92-.17,7.89,7.89,0,0,0,1.43-.34v4.94h-.28v-.35A2.61,2.61,0,0,0,291,22.85a3.09,3.09,0,0,0-1.5-.4Z" fill="#555"/><path d="M311.47,40.87h.26v.29h-9.06v-.29h.26a1.09,1.09,0,0,0,.92-.38,1.22,1.22,0,0,0,.3-.72,1.64,1.64,0,0,0-.15-.68l-1.39-3.5H296l-1.48,3.5a2,2,0,0,0-.14.69,1.21,1.21,0,0,0,.31.71,1.14,1.14,0,0,0,.94.38h.23v.29h-6.08v-.29H290a2.57,2.57,0,0,0,1.31-.39,3.07,3.07,0,0,0,1.07-1.2L299,24.44a15.33,15.33,0,0,0,1.42-3.72h.26l8.43,18.51a3,3,0,0,0,1.08,1.23A2.41,2.41,0,0,0,311.47,40.87Zm-15-6.47h5.68l-2.75-7Z" fill="#555"/><path d="M312.41,40.87a1.71,1.71,0,0,0,1.26-.52,1.78,1.78,0,0,0,.55-1.26V23.36a1.81,1.81,0,0,0-.55-1.27,1.71,1.71,0,0,0-1.26-.52H312v-.28h8.63l0,.28h-.34a1.77,1.77,0,0,0-1.28.52,1.72,1.72,0,0,0-.54,1.27V39.94h3.72a5.18,5.18,0,0,0,3.48-1.2,7.05,7.05,0,0,0,2.09-3.37h.28l-1.31,5.79H312v-.29Z" fill="#555"/><path d="M348.43,41.54q-5.48,0-8.6-2.77a9.54,9.54,0,0,1-3.12-7.55,9.62,9.62,0,0,1,3.09-7.56c2.07-1.85,4.89-2.77,8.49-2.77a15.21,15.21,0,0,1,7.07,1.53l.06,4.88h-.23c-1-3.48-3.17-5.22-6.62-5.22a6.42,6.42,0,0,0-5.29,2.43,10.3,10.3,0,0,0-1.94,6.63,10.91,10.91,0,0,0,1.85,6.67,6.2,6.2,0,0,0,5,2.55,7.07,7.07,0,0,0,5-1.64c1.17-1.14,2-3.09,2.44-5.85h.23l.28,4.88Q353.92,41.56,348.43,41.54Z" fill="#555"/><path d="M359.05,40.87a1.71,1.71,0,0,0,1.26-.52,1.84,1.84,0,0,0,.56-1.26V23.36a1.86,1.86,0,0,0-.56-1.27,1.71,1.71,0,0,0-1.26-.52h-.37v-.28h8.63l0,.28h-.34a1.77,1.77,0,0,0-1.28.52,1.75,1.75,0,0,0-.53,1.27V39.94h3.71a5.17,5.17,0,0,0,3.48-1.2,7.05,7.05,0,0,0,2.09-3.37h.28l-1.3,5.79H358.68v-.29Z" fill="#555"/><path d="M376.37,40.87a1.71,1.71,0,0,0,1.26-.52,1.78,1.78,0,0,0,.55-1.26V23.33a1.81,1.81,0,0,0-1.81-1.76H376v-.28h8.63l0,.28h-.34a1.81,1.81,0,0,0-1.28.51,1.66,1.66,0,0,0-.54,1.25V39.09a1.69,1.69,0,0,0,.54,1.26,1.77,1.77,0,0,0,1.28.52h.34l0,.29H376v-.29Z" fill="#555"/><path d="M409,21.57a1.64,1.64,0,0,0-1.51.85,1.84,1.84,0,0,0-.25.85V37.92a17.13,17.13,0,0,0,.25,3.21l.09.42h-.26L393,27.9V39.17a1.63,1.63,0,0,0,.51,1.21,1.67,1.67,0,0,0,1.22.49h.54v.29h-8.61v-.29h.52a1.74,1.74,0,0,0,1.25-.49,1.67,1.67,0,0,0,.51-1.24V24.41a15.88,15.88,0,0,0-.26-3.12l-.06-.43h.26l14.34,13.65V23.3a1.75,1.75,0,0,0-.54-1.23,1.7,1.7,0,0,0-1.22-.5h-.52v-.28h8.61v.28Z" fill="#555"/><path d="M411.43,40.87a1.71,1.71,0,0,0,1.26-.52,1.82,1.82,0,0,0,.55-1.26V23.33a1.78,1.78,0,0,0-.55-1.25,1.74,1.74,0,0,0-1.26-.51h-.37v-.28h8.63l0,.28h-.34a1.81,1.81,0,0,0-1.28.51,1.66,1.66,0,0,0-.54,1.25V39.09a1.69,1.69,0,0,0,.54,1.26,1.77,1.77,0,0,0,1.28.52h.34l0,.29h-8.63v-.29Z" fill="#555"/><path d="M433.26,41.54c-3.66,0-6.52-.93-8.6-2.77a9.51,9.51,0,0,1-3.13-7.55,9.59,9.59,0,0,1,3.1-7.56q3.09-2.78,8.49-2.77a15.14,15.14,0,0,1,7.06,1.53l.06,4.88H440c-1-3.48-3.17-5.22-6.61-5.22a6.41,6.41,0,0,0-5.29,2.43,10.31,10.31,0,0,0-1.95,6.63A10.84,10.84,0,0,0,428,37.81a6.2,6.2,0,0,0,5,2.55,7,7,0,0,0,5-1.64c1.18-1.14,2-3.09,2.45-5.85h.22l.29,4.88Q438.73,41.56,433.26,41.54Z" fill="#555"/><path d="M77.63,10.89a5.29,5.29,0,1,1-5.29-5.28,5.28,5.28,0,0,1,5.29,5.28m.05-9.61C59.58,1.64,57.88,22,46.62,22c-7,0-14.89-17.33-23.31-19.57A84.82,84.82,0,0,0,2.58,0C.6,0,0,2.11,0,2.75S5.64,81.67,5.64,81.67H19.11s-.42-40.83,28.08-42.89c9.14-.66,16.34,10.46,17.44,20.32a87,87,0,0,1-.21,22.62h10.7L81.66,2.33s.73-1.15-4-1" fill="#555"/><path d="M105.12,66.92V54.5h7.53v1.72H107v3.85h5.18v1.69H107v5.16Z" fill="#231f20"/><path d="M115,66.92l4.33-12.42h2l4.32,12.42h-2l-1.17-3.47h-4.45l-1.17,3.47Zm5.26-10.3-1.75,5.29h3.57l-1.75-5.29Z" fill="#231f20"/><path d="M129.72,66.92V54.5h1.87l3.91,8.89h.07l3.9-8.89h1.87V66.92h-1.7v-8.7h-.1l-3.3,7.41h-1.42l-3.31-7.41h-.09v8.7Z" fill="#231f20"/><path d="M146.59,66.92V54.5h1.88V66.92Z" fill="#231f20"/><path d="M161.14,66.92h-7.45V54.5h1.88V65.16h5.57Z" fill="#231f20"/><path d="M166.67,66.92v-5l-4.14-7.38h2.11l2.94,5.39h.09l3-5.39h2.07l-4.14,7.35v5.07Z" fill="#231f20"/><path d="M181.27,66.92,185.6,54.5h2L192,66.92h-2l-1.17-3.47h-4.45l-1.17,3.47Zm5.26-10.3-1.75,5.29h3.57l-1.75-5.29Z" fill="#231f20"/><path d="M195.94,66.92V54.5h1.7l6,9h.09v-9h1.82V66.92h-1.71l-6-9h-.08v9Z" fill="#231f20"/><path d="M214.9,54.5c4,0,5.48,2.56,5.48,6.2s-1.42,6.22-5.48,6.22h-4.17V54.5Zm-2.29,10.71h2.12c2.52,0,3.73-1.41,3.73-4.49,0-2.69-1-4.52-3.73-4.52h-2.12Z" fill="#231f20"/><path d="M238.63,66.92H231V54.5h7.63v1.71h-5.77v3.58h5.44v1.63h-5.44v3.79h5.77Z" fill="#231f20"/><path d="M244.39,63.48c.11,1.09,1.08,2,2.9,2,1.66,0,2.68-.76,2.68-1.95,0-.95-.65-1.47-2-1.8l-2.11-.51c-1.54-.38-3-1.33-3-3.34,0-2.37,2.08-3.66,4.41-3.66s4.36,1.28,4.4,3.61h-1.81c-.1-1.06-.95-2-2.61-2-1.47,0-2.5.68-2.5,1.85,0,.82.57,1.4,1.73,1.67l2.08.51c1.89.46,3.26,1.34,3.26,3.44,0,2.45-2,3.81-4.72,3.81-3.39,0-4.54-2-4.58-3.69Z" fill="#231f20"/><path d="M258.87,66.92V56.23h-3.68V54.5h9.24v1.73h-3.69V66.92Z" fill="#231f20"/><path d="M276.17,66.92V61.4h-5.91v5.52h-1.87V54.5h1.87v5.17h5.91V54.5h1.88V66.92Z" fill="#231f20"/><path d="M290.9,66.92h-7.62V54.5h7.62v1.71h-5.76v3.58h5.44v1.63h-5.44v3.79h5.76Z" fill="#231f20"/><path d="M298.13,66.92V56.23h-3.68V54.5h9.24v1.73H300V66.92Z" fill="#231f20"/><path d="M307.8,66.92V54.5h1.87V66.92Z" fill="#231f20"/><path d="M316.3,61.57c0,2.63,1.23,3.85,3.12,3.85a2.5,2.5,0,0,0,2.8-2.49h1.83v.14c0,2-1.52,4.1-4.69,4.1s-5-2-5-5.59V59.9c0-3.56,1.94-5.64,5-5.64a4.31,4.31,0,0,1,4.67,4.26v.14h-1.83A2.67,2.67,0,0,0,319.39,56c-1.85,0-3.09,1.33-3.09,3.92Z" fill="#231f20"/><path d="M338.92,54.5c4,0,5.49,2.56,5.49,6.2s-1.43,6.22-5.49,6.22h-4.16V54.5Zm-2.29,10.71h2.12c2.52,0,3.73-1.41,3.73-4.49,0-2.69-1-4.52-3.73-4.52h-2.12Z" fill="#231f20"/><path d="M356.59,66.92H349V54.5h7.63v1.71h-5.76v3.58h5.44v1.63h-5.44v3.79h5.76Z" fill="#231f20"/><path d="M361.39,66.92V54.5h1.7l6,9h.09v-9H371V66.92h-1.7l-6-9h-.08v9Z" fill="#231f20"/><path d="M378.62,66.92V56.23h-3.69V54.5h9.24v1.73h-3.68V66.92Z" fill="#231f20"/><path d="M388.28,66.92V54.5h1.87V66.92Z" fill="#231f20"/><path d="M396.34,63.48c.11,1.09,1.08,2,2.9,2,1.66,0,2.68-.76,2.68-1.95,0-.95-.65-1.47-2-1.8l-2.11-.51c-1.54-.38-3-1.33-3-3.34,0-2.37,2.08-3.66,4.41-3.66s4.36,1.28,4.4,3.61h-1.81c-.11-1.06-.95-2-2.62-2-1.46,0-2.49.68-2.49,1.85,0,.82.57,1.4,1.73,1.67l2.08.51c1.89.46,3.26,1.34,3.26,3.44,0,2.45-2,3.81-4.72,3.81-3.39,0-4.54-2-4.58-3.69Z" fill="#231f20"/><path d="M410.82,66.92V56.23h-3.68V54.5h9.24v1.73h-3.69V66.92Z" fill="#231f20"/><path d="M429.09,58.31a3.51,3.51,0,0,1-2.3,3.48l2.52,5.13h-2.12l-2.25-4.79H422.2v4.79h-1.86V54.5H425C427.8,54.5,429.09,56.25,429.09,58.31Zm-4.42,2.2c1.62,0,2.49-.75,2.49-2.12a2.13,2.13,0,0,0-2.43-2.23H422.2v4.35Z" fill="#231f20"/><path d="M436.36,66.92v-5l-4.15-7.38h2.11l2.94,5.39h.09l3-5.39h2.07l-4.15,7.35v5.07Z" fill="#231f20"/></svg>